<svg width="439" height="192" viewBox="0 0 439 192" fill="none" xmlns="http://www.w3.org/2000/svg">
<path d="M61.3398 13.0586C58.0117 13.0586 55.1641 14.3242 52.7969 16.8555C50.4531 19.3633 49.2812 22.3398 49.2812 25.7852C49.2812 28.5742 50.0312 30.8828 51.5312 32.7109L67.9492 49.832H49V64H71.9922C75.2969 64 78.1445 62.7344 80.5352 60.2031C82.9023 57.6719 84.0859 54.6953 84.0859 51.2734C84.0859 48.8594 83.3477 46.5625 81.8711 44.3828C70.9961 33.0625 65.5 27.332 65.3828 27.1914H90.8711V64H105.039V27.1914H118.117V13.0586H61.3398ZM131.828 45.6836L136.645 32.957L141.461 45.6836H131.828ZM128.102 13.0586L107.922 64H124.902L126.801 58.9727H146.453L148.387 64H164.664L145.188 13.0586H128.102ZM234.062 64C237.367 64 240.215 62.7344 242.605 60.2031C244.973 57.6719 246.156 54.6953 246.156 51.2734C246.156 48.8594 245.418 46.5625 243.941 44.3828C233.066 33.0625 227.57 27.332 227.453 27.1914H245.453V13.0586H223.41C220.082 13.0586 217.234 14.3242 214.867 16.8555C212.523 19.3633 211.352 22.3398 211.352 25.7852C211.352 28.5742 212.102 30.8828 213.602 32.7109L230.02 49.832H203.934C201.73 49.832 199.762 49.832 198.027 49.832C201.379 47.9805 204.074 45.5195 206.113 42.4492C208.199 39.2852 209.242 35.8047 209.242 32.0078C209.242 26.8047 207.414 22.3633 203.758 18.6836C200.102 14.9805 195.672 13.1055 190.469 13.0586H166.422V64H180.59V54.8945L188.992 64H203.934H234.062ZM180.59 36.2266V29.2656H189.203C190.164 29.2656 190.984 29.6055 191.664 30.2852C192.344 30.9648 192.684 31.7852 192.684 32.7461C192.684 33.707 192.344 34.5273 191.664 35.207C190.984 35.8867 190.164 36.2266 189.203 36.2266H180.59ZM277.234 31.4453H262.082V13.0586H247.914V64H262.082V45.6133H277.234V64H291.367V13.0586H277.234V31.4453ZM293.125 64H307.293V13.0586H293.125V64ZM309.086 13.0586V64H323.254V50.957H333.133C338.336 50.9102 342.766 49.0469 346.422 45.3672C350.078 41.6641 351.906 37.2109 351.906 32.0078C351.906 26.8047 350.078 22.3633 346.422 18.6836C342.766 14.9805 338.336 13.1055 333.133 13.0586H309.086ZM323.254 36.2266V29.2656H331.867C332.828 29.2656 333.648 29.6055 334.328 30.2852C335.008 30.9648 335.348 31.7852 335.348 32.7461C335.348 33.707 335.008 34.5273 334.328 35.207C333.648 35.8867 332.828 36.2266 331.867 36.2266H323.254ZM390.859 27.1914V13.0586H366.004C362.676 13.0586 359.828 14.3242 357.461 16.8555C355.117 19.3633 353.945 22.3398 353.945 25.7852C353.945 28.5742 354.695 30.8828 356.195 32.7109L372.613 49.832H350.5V64H376.656C379.961 64 382.809 62.7344 385.199 60.2031C387.566 57.6719 388.75 54.6953 388.75 51.2734C388.75 48.8594 388.012 46.5625 386.535 44.3828C375.66 33.0625 370.164 27.332 370.047 27.1914H390.859Z" fill="white"/>
<path d="M77.2266 81.0391C75.0078 81.0391 73.1094 81.8828 71.5312 83.5703C69.9688 85.2422 69.1875 87.2266 69.1875 89.5234C69.1875 91.3828 69.6875 92.9219 70.6875 94.1406L81.6328 105.555H69V115H84.3281C86.5312 115 88.4297 114.156 90.0234 112.469C91.6016 110.781 92.3906 108.797 92.3906 106.516C92.3906 104.906 91.8984 103.375 90.9141 101.922C83.6641 94.375 80 90.5547 79.9219 90.4609H96.9141V115H106.359V90.4609H115.078V81.0391H77.2266ZM124.219 102.789L127.43 94.3047L130.641 102.789H124.219ZM121.734 81.0391L108.281 115H119.602L120.867 111.648H133.969L135.258 115H146.109L133.125 81.0391H121.734ZM175.828 93.6719C175.828 90.2031 174.609 87.2422 172.172 84.7891C169.734 82.3203 166.781 81.0703 163.312 81.0391H147.281V115H156.727V108.93L162.328 115H186.844V105.555H168.352C170.586 104.32 172.383 102.68 173.742 100.633C175.133 98.5234 175.828 96.2031 175.828 93.6719ZM156.727 96.4844V91.8438H162.469C163.109 91.8438 163.656 92.0703 164.109 92.5234C164.562 92.9766 164.789 93.5234 164.789 94.1641C164.789 94.8047 164.562 95.3516 164.109 95.8047C163.656 96.2578 163.109 96.4844 162.469 96.4844H156.727ZM221.25 93.5547L218.391 81.0391H210.047L207.164 93.5547L204.305 81.0391H194.156L201.938 115H211.219L214.312 102.344L216.023 115H226.477L234.75 81.0391H224.133L221.25 93.5547ZM244.828 102.789L248.039 94.3047L251.25 102.789H244.828ZM242.344 81.0391L228.891 115H240.211L241.477 111.648H254.578L255.867 115H266.719L253.734 81.0391H242.344ZM312.984 115C315.188 115 317.086 114.156 318.68 112.469C320.258 110.781 321.047 108.797 321.047 106.516C321.047 104.906 320.555 103.375 319.57 101.922C312.32 94.375 308.656 90.5547 308.578 90.4609H320.578V81.0391H305.883C303.664 81.0391 301.766 81.8828 300.188 83.5703C298.625 85.2422 297.844 87.2266 297.844 89.5234C297.844 91.3828 298.344 92.9219 299.344 94.1406L310.289 105.555H292.898C291.43 105.555 290.117 105.555 288.961 105.555C291.195 104.32 292.992 102.68 294.352 100.633C295.742 98.5234 296.438 96.2031 296.438 93.6719C296.438 90.2031 295.219 87.2422 292.781 84.7891C290.344 82.3203 287.391 81.0703 283.922 81.0391H267.891V115H277.336V108.93L282.938 115H292.898H312.984ZM277.336 96.4844V91.8438H283.078C283.719 91.8438 284.266 92.0703 284.719 92.5234C285.172 92.9766 285.398 93.5234 285.398 94.1641C285.398 94.8047 285.172 95.3516 284.719 95.8047C284.266 96.2578 283.719 96.4844 283.078 96.4844H277.336ZM349.477 101.711L341.648 81.0391H330.797L343.781 115H355.172L368.625 81.0391H357.305L349.477 101.711Z" fill="white"/>
<g filter="url(#filter0_d)">
<rect x="37" y="148" width="365" height="7" rx="3.5" fill="white"/>
<rect x="37.5" y="148.5" width="364" height="6" rx="3" stroke="url(#paint0_linear)"/>
</g>
<defs>
<filter id="filter0_d" x="0" y="111" width="439" height="81" filterUnits="userSpaceOnUse" color-interpolation-filters="sRGB">
<feFlood flood-opacity="0" result="BackgroundImageFix"/>
<feColorMatrix in="SourceAlpha" type="matrix" values="0 0 0 0 0 0 0 0 0 0 0 0 0 0 0 0 0 0 127 0"/>
<feMorphology radius="9" operator="dilate" in="SourceAlpha" result="effect1_dropShadow"/>
<feOffset/>
<feGaussianBlur stdDeviation="14"/>
<feColorMatrix type="matrix" values="0 0 0 0 0.298039 0 0 0 0 0.764706 0 0 0 0 1 0 0 0 1 0"/>
<feBlend mode="normal" in2="BackgroundImageFix" result="effect1_dropShadow"/>
<feBlend mode="normal" in="SourceGraphic" in2="effect1_dropShadow" result="shape"/>
</filter>
<linearGradient id="paint0_linear" x1="338.419" y1="142.705" x2="336.545" y2="176.582" gradientUnits="userSpaceOnUse">
<stop stop-color="#FF057C"/>
<stop offset="1" stop-color="#4CC3FF"/>
</linearGradient>
</defs>
</svg>
