<svg width="21" height="21" viewBox="0 0 21 21" fill="none" xmlns="http://www.w3.org/2000/svg">
<path d="M12.4974 0.447052C8.04724 0.447052 4.44196 4.05233 4.44196 8.50252C4.44196 10.4262 5.11462 12.1898 6.23845 13.5762L0.70134 19.1133C0.373215 19.4414 0.373215 19.9705 0.70134 20.2986C1.02946 20.6267 1.55857 20.6267 1.88669 20.2986L7.4238 14.7615C8.81013 15.8853 10.5738 16.558 12.4974 16.558C16.9476 16.558 20.5529 12.9527 20.5529 8.50252C20.5529 4.05233 16.9435 0.447052 12.4974 0.447052ZM12.4974 14.8846C8.97419 14.8846 6.1154 12.0258 6.1154 8.50252C6.1154 4.97928 8.97419 2.12049 12.4974 2.12049C16.0207 2.12049 18.8795 4.97928 18.8795 8.50252C18.8795 12.0258 16.0207 14.8846 12.4974 14.8846Z" fill="white"/>
</svg>
